<svg width="778" height="583" viewBox="0 0 778 583" fill="none" xmlns="http://www.w3.org/2000/svg">
<path d="M166.134 0C132.707 0 103.399 8.78278 78.2044 26.3338C53.009 43.6308 33.6723 68.2911 20.2014 100.341C6.731 132.391 0 169.29 0 211.005V215.569C0 280.177 15.2182 331.826 45.6524 370.489C76.0863 408.899 115.991 428.104 165.385 428.104C202.304 428.104 232.867 414.482 257.064 387.265V400.24C257.064 458.744 229.114 488.012 173.235 488.012C134.819 488.012 103.88 473.878 80.4307 445.644L27.6774 521.204C42.3953 539.518 63.5912 554.396 91.2814 565.842C119.22 577.29 148.05 583 177.735 583C219.145 583 255.56 575.753 286.992 561.254C318.424 547.01 342.381 526.421 358.845 499.458C375.559 472.75 383.897 441.203 383.897 404.829V7.64684H269.415L264.915 43.4914C241.216 14.494 208.293 0 166.134 0V0ZM593.224 11.1357C552.811 11.1357 517.879 20.0222 488.443 37.828C459.007 55.379 436.556 80.3192 421.09 112.624C405.873 144.928 398.263 182.186 398.263 224.411V235.093C398.263 295.631 417.475 344.849 455.891 382.748C494.308 420.394 544.584 439.215 606.699 439.215C639.877 439.215 670.816 432.736 699.504 419.764C728.441 406.537 750.767 388.868 766.483 366.738L708.855 297.295C686.403 325.784 655.213 340.022 615.3 340.022C591.102 340.022 571.389 333.415 556.172 320.188C540.955 306.961 531.11 288.78 526.62 265.632H777.333V215.641C777.333 151.287 760.86 101.174 727.931 65.3088C695.002 29.1886 650.1 11.1357 593.224 11.1357V11.1357Z" fill="#C4C4C4" fill-opacity="0.67"/>
</svg>
