<svg width="170" height="46" viewBox="0 0 170 46" fill="none" xmlns="http://www.w3.org/2000/svg">
<path d="M0 16.5028C0 13.24 0.537181 10.3553 1.61149 7.8486C2.68581 5.34185 4.22767 3.412 6.23705 2.05912C8.24643 0.686384 10.5841 0 13.25 0C16.6122 0 19.2383 1.13401 21.1283 3.40203L21.4864 0.596906H30.6182V31.6627C30.6182 34.5077 29.9517 36.9747 28.6187 39.0636C27.3057 41.1725 25.3958 42.7839 22.889 43.898C20.3823 45.032 17.4776 45.5991 14.1751 45.5991C11.8076 45.5991 9.50972 45.1515 7.2815 44.2561C5.07317 43.3608 3.38212 42.1971 2.20833 40.7646L6.41608 34.8558C8.2862 37.0642 10.7532 38.1683 13.817 38.1683C18.2734 38.1683 20.5016 35.8803 20.5016 31.3045V30.2899C18.5718 32.4187 16.1347 33.483 13.1903 33.483C9.25111 33.483 6.06793 31.981 3.64076 28.9769C1.21359 25.9529 0 21.9142 0 16.8609V16.5028Z" fill="#FFE600"/>
<path d="M49.9233 33.4831C44.9694 33.4831 40.9606 32.0109 37.8968 29.0664C34.833 26.1021 33.3011 22.2524 33.3011 17.5174V16.6819C33.3011 13.3793 33.9079 10.4647 35.1215 7.93804C36.3549 5.41137 38.1455 3.46174 40.4931 2.089C42.8407 0.696332 45.626 0 48.8489 0C53.385 0 56.966 1.41253 59.5921 4.23765C62.2183 7.04278 63.5313 10.9621 63.5313 15.9955V19.9048H43.537C43.8951 21.7153 44.681 23.1378 45.8945 24.1723C47.1081 25.2069 48.6798 25.7241 50.6096 25.7241C53.7928 25.7241 56.2796 24.6099 58.0702 22.3817L62.6659 27.8131C61.4125 29.544 59.6319 30.9266 57.3241 31.9611C55.0362 32.9757 52.5693 33.4831 49.9233 33.4831Z" fill="#FFE600"/>
<path d="M74.779 0.596906L75.1072 4.38692C77.3355 1.46234 80.4092 0 84.3285 0C87.6908 0 90.1975 1.00467 91.8488 3.01405C93.5199 5.02343 94.3854 8.0475 94.445 12.0862V32.8862H84.3584V12.5039C84.3584 10.8725 84.0301 9.67884 83.3736 8.92284C82.717 8.14697 81.5234 7.75907 79.7925 7.75907C77.8229 7.75907 76.3606 8.53491 75.4057 10.0867V32.8862H65.3488V0.596906H74.779Z" fill="#FFE600"/>
<path d="M113.601 33.4831C108.647 33.4831 104.638 32.0109 101.574 29.0664C98.5106 26.1021 96.9787 22.2524 96.9787 17.5174V16.6819C96.9787 13.3793 97.5856 10.4647 98.7992 7.93804C100.033 5.41137 101.823 3.46174 104.171 2.089C106.518 0.696332 109.304 0 112.527 0C117.063 0 120.644 1.41253 123.27 4.23765C125.896 7.04278 127.209 10.9621 127.209 15.9955V19.9048H107.215C107.573 21.7153 108.359 23.1378 109.572 24.1723C110.786 25.2069 112.357 25.7241 114.287 25.7241C117.47 25.7241 119.957 24.6099 121.748 22.3817L126.344 27.8131C125.09 29.544 123.31 30.9266 121.002 31.9611C118.714 32.9757 116.247 33.4831 113.601 33.4831Z" fill="#FFE600"/>
<path d="M157.108 19.6363L160.361 0.596999H170L162.39 32.8863H153.885L148.543 13.7276L143.172 32.8863H134.667L127.057 0.596999H136.696L139.889 20.084L145.022 0.596999H152.035L157.108 19.6363Z" fill="#FFE600"/>
</svg>
